<svg xmlns="http://www.w3.org/2000/svg" viewBox="0 0 1000 1000"><title>Artboard 1 copy 5</title><g id="Layer_2" data-name="Layer 2"><path d="M370.18,73.64c31.53,3.56,39.33,16.4,2,22.11-56.25,9.38-99.67,51-133.82,94.08C190.49,199.52,315.67,62.09,370.18,73.64Z"/><path d="M567.24,195.39a2,2,0,0,1-.68.22c-57.26,6.94,4.52-18.37-2.82-44.06a1.9,1.9,0,0,0-2.51-1.2c-17.37,6.64-30.48,24.36-45.37,35.06a1.89,1.89,0,0,1-2.69-.56c-11.24-17.91-21.76-34.69-32.35-51.59a1.89,1.89,0,0,1,1.75-2.89c11.77.89,39,8.76,30.29-8-6.11-13.15-17.39-16.59-30.31-15-89,7.26-188.37,28.85-226.85,119.07a1.88,1.88,0,0,1-3.55-.22c-3.87-13.59-10.26-37.2-20.26-18.23a2.08,2.08,0,0,0-.23,1c.66,14.64,8,29.36,10.4,44,4.83,25.23-17.89,51.79-5.91,76.26a1.91,1.91,0,0,0,3.29.26c31.57-46.4,17-27.71,46.76,12.56a1.88,1.88,0,0,1-1.76,3c-10.15-1.28-24.32.1-14,10a2,2,0,0,0,1.06.51c31.34,4.25,58.5,15.92,87.73,28.67,24,12.09,55.32,1.09,77.34,12.65a2,2,0,0,1,.83.85c7.49,15-7.65,20.83-20.45,20.93l-.29,0C279.51,441.05,285.05,702.35,301,808.54l0,.18c13,52.95,14.52-14.87,19.58-35.5l0-.16c14.93-44.32,26.66-89.64,38.42-134.92l0-.12c12.27-37.59,31.73-79.07,62.65-104.18,1.54-1.25,2.81.27,2.92,2.25A78.06,78.06,0,0,0,426,548c.06.36-.21,2.73-.09,3.07,26,75.13,6.35,160.87-3.57,238.5l0,.2c-.61,37.21-14.55,78.94-5.1,114.46a1.91,1.91,0,0,0,3.12.93c11-9.81,10.44-26.87,14.18-40.48l.05-.25c8.27-75.19,32.05-149.54,28.91-225.42l-.05-.37c-7.16-28.68-3.08-119.75-33.33-127.27a2.22,2.22,0,0,0-.51-.06c-41.24,0-70.13,33.51-89.44,70.22-1.15,2.47-.82,3-1.15,3.47-2,3-.2.9-3.19,5.15h0q-2.43,5.05-4.64,10.12C320.6,631.88,316.9,707,316.88,707.47c-.1,2.29-.2,4.58-.37,6.78a1.87,1.87,0,0,1-3.74-.19c.06-3.07.11-6.16.3-9.09h0A967.68,967.68,0,0,1,323,599l.29-.31.27-1.94c5.77-39.25,20.18-76.69,30.6-115a1.94,1.94,0,0,1,.45-.82c25.18-26.71,62.9-29.07,94-41.55a1.92,1.92,0,0,0,.84-.65C475,404.2,432,389.53,480.81,371.05a1.9,1.9,0,0,1,2.54,1.4c17.93,92.32,70.27-30.77,133.12,13.91a1.93,1.93,0,0,0,1.2.36c30.32-1.5,53-37.51,78.37-53.57a2,2,0,0,0,.61-.62c31.12-52,34-109.47-24-129.9a1.89,1.89,0,0,1,.85-3.65c188.19,20.7-25.12,212.59-75.75,296.21a1.91,1.91,0,0,0-.25,1.21c11.37,91.8-23,180.07-61,264.71l-.07.18c-14,43.58-52.7,84.47-56.46,129.36a1.9,1.9,0,0,0,3.24,1.46c72.8-73,103.21-191.93,132-290.52l.07-.44c7-165.42,80.47-171,152.47-301.45l.11-.21C819.13,175.43,647.48,151.78,567.24,195.39Zm-17.06,21.7a1.89,1.89,0,0,1,2.35,2.34c-.69,2.4-1.33,4.57-1.93,6.66a1.89,1.89,0,0,1-3.51.3C543.9,220,544.36,218.82,550.18,217.09Zm-276,54.79a1.92,1.92,0,0,1-.08-1.9C313.4,194.86,363.6,140.39,454.3,148.76a1.91,1.91,0,0,1,1.38.79c21.24,29.64,36.17,65.36-17,46.8a1.44,1.44,0,0,1-.33-.16c-15.44-9.26-26.75,7-33.87,19.19a1.85,1.85,0,0,1-1.51.93C321,221.43,361.17,408.7,274.21,271.88Zm73.4,70.39a1.87,1.87,0,0,1-.24-2.85c25.4-25.43,26.09-92.25,58.47-96.52a1.6,1.6,0,0,0,.54-.15c26.5-12.39,13.73-19.81,49.13-13.81a1.9,1.9,0,0,1,1.44,2.6c-4.17,9.87-8.32,19.72-12.63,29.94a1.87,1.87,0,0,1-2.68.91c-20-12-33.66,24.62-21.56,38.72a1.27,1.27,0,0,1,.13.19c12.69,21.16,46.89.09,34.44-17.13a1.88,1.88,0,0,0-2.54-.47c-8.73,5.68-16.73,18.73-20.87,1.62,0-.11,0-.23-.05-.35-.49-6.54,1.62-12.53,8.75-15.28a1.88,1.88,0,0,1,2.49,1.41c1.25,6.24,2.63,12.26,8.71,7.83a1.93,1.93,0,0,1,1.6-.28C565.79,309.41,416,390.26,347.61,342.27ZM462.7,264a1.89,1.89,0,0,1-.46-2.26c18.29-36.78,71.66-73.63,69.26-6.88a2.08,2.08,0,0,1-.19.77C518.72,282.19,484.54,282.64,462.7,264Zm234.64,16.5c-3,10.22-4.63,15-11.56,23.72-18.6,23.43-46,37-68.88,54.21a1.9,1.9,0,0,1-1.47.34c-40.32-7.62-76.58,7.87-108.73,32.67a1.89,1.89,0,0,1-2.88-.71c-12.87-28.26-9.37-33.23,12.65-55.11,16.06-16.19,11.26-38.86,20.88-57.44,11.65-24.13,26-45.73,45.23-64.51a1.87,1.87,0,0,1,.79-.47C627.53,199.66,715.11,220.13,697.34,280.49Z"/></g></svg>