<svg xmlns="http://www.w3.org/2000/svg" viewBox="0 0 1000 1000"><defs><style>.cls-1{fill:#0E497C;}</style></defs><title>Artboard 1 copy 51</title><g id="Layer_2" data-name="Layer 2"><path class="cls-1" d="M366.91,507c45.74-47.43,106.3-83.28,148.65-6,18.22,40.47,73.71,76.77,120,66.4,20.75.18,60.63-22.12,75.34-5.9.79,32.66-83.26,57.65-112.41,54.36-61-3.16-95.95-69.35-141.15-104.86-60.67-27.68-65.16,38.37-91.62,27.74-8-8.82-19.59-7.74-28.84-12.58-13.19-6.1-24.77-15.21-37.56-21.88-33.63-24-61.38,97-103.45,115.36-89.24,70.43-174-9.86-119.47-21,94.73,41.49,117.05-48.94,155.93-115.25C271.85,424.07,335.9,464.91,366.91,507Z"/><path class="cls-1" d="M579.21,395.74c7.76,46.36,9.26,86.59,2.64,133.87a1,1,0,0,1-1.65.63c-18.91-16-33.44-18.91-32-35.19,3-33.54-.2-64.17-6.51-97.34-1.05-5.56-3-8.33-9.23-9.54-125.92-26.9-256-16.07-379.6,17.19a1.39,1.39,0,0,0-.26.1c-29.52,16.64.82,129.3,5.89,162.93a1,1,0,0,1-.75,1.11c-10.81,2.52-33.19,22.51-43,6a1.09,1.09,0,0,1-.1-.25c-16.6-53.07-14.29-100.26-6.86-155a1,1,0,0,0-1.27-1.09c-22,6.56-65,20.78-45.85-18.9a1,1,0,0,1,.22-.31c15.71-15.22,39.27-14,58.82-20.63,74.42-28.6,154.7-44.89,234.71-37.43h.14c76.21-4.34,156.16-6,229.47,18a1,1,0,0,0,.45,0c16.55-2.53,26.61,10.79,39.73,16.5,7.26,3.16,10,11.9,7.14,17.52a.83.83,0,0,1-.07.13c-10,16-34.12.22-51.14.51A1,1,0,0,0,579.21,395.74Z"/><path class="cls-1" d="M124.2,348.18c7.84-26.67,10.44-38,18.71-63.14,56.12-76.39,172.22-99.29,260.78-77.29,20,.4,116.57,38.28,110.88,59.88-7.86,12.75-42.71,2.69-53.43-3.35-90.05-44.08-194.4-38-279.23,16.44-9.6,15-16.51,26.86-19.7,44.57-3.47,19.29-15.56,17.73-37.06,23.85A.77.77,0,0,1,124.2,348.18Z"/><path class="cls-1" d="M531.57,617.83c-3.68-4.4-10.34-4.44-15.39-5.36a4.48,4.48,0,0,0-4.55,1.85c-22.4,32.94-37.69,69.53-73.24,90.06a1.23,1.23,0,0,1-.59.18c-83.42,6.11-178.47,13.74-237.22-57a1.35,1.35,0,0,0-1.81-.24c-14.5,10.21-25.1,15.82-32.68,18.87a1.35,1.35,0,0,0-.58,2C229.33,755.5,362.25,756.76,455.78,727c46.36-16.37,66.62-60.79,89.72-100.12a1.33,1.33,0,0,0-.81-2C539.62,623.57,534.54,621.4,531.57,617.83Z"/><path class="cls-1" d="M819.29,858.15c6.21-11.23,11.56-21.31,17.28-31.17q25-43,50.27-85.82c2.84-4.8,6.69-9,10.34-13.3,4.08-4.74,4.51-8.72,1-13.88-18.89-27.51-61.11-44.21-93.36-37a201.63,201.63,0,0,1-20.3,3.86c-4,.47-8.38-.34-10.12-5s.44-8.27,4.25-10.34c4.54-2.46,9.56-4,14.32-6.06,1.66-.71,4.38-1.56,4.58-2.71,2.7-15.49,11.73-28,18.39-41.71,5.94-12.2,11.51-24.63,16.29-37.32,4-10.65,2.48-12.94-8.54-15.13C809.4,559.69,798,566,788.11,575.44s-14,22.32-17.77,34.89a592,592,0,0,1-21.91,61.33c-16.71,39-58.43,52.07-90.31,47.09-6.48-1-10.88,1-15.28,5.55C631.75,735.68,624,748.4,624.51,765c0,.95.08,1.9.14,3.39,16.3,2.16,31.36,8,45.85,15.35,5.33,2.72,10.63,5.53,15.75,8.63,5.33,3.22,6.82,8.6,4.16,13.45-2.81,5.1-8.36,6.59-14,3.87-19.49-9.37-39-18.67-58.47-28.1-2.76-1.34-5.72-2.79-7.74-5-1.35-1.47-1.77-4.38-1.6-6.56.23-2.92,1.44-5.77,2.24-8.64,2.22-8,3.66-16.29,6.91-23.82s8-14.64,12.7-21.48c5.4-7.85,12.84-11.12,22.84-10.93,22.87.44,44-5.72,61.47-21.37,9.53-8.52,14.65-20,18.61-31.82,5.82-17.28,10.42-35,16.1-52.3,5.54-16.88,12.26-33.23,26.85-44.73,15.71-12.38,32.83-20,53.2-15,22.85,5.59,31.92,20.92,24.31,43.3-5.15,15.18-12.5,29.63-19.11,44.29-4.18,9.27-8.82,18.34-13.55,28.11,7.5.35,14.81.24,22,1.09,19.33,2.3,35.71,11.09,49.35,24.79,11.32,11.37,22.23,23.16,33,35,6.89,7.58,6.6,19.72-1.56,25.77-11.88,8.82-18.46,21.28-25.29,33.6-13.92,25.11-26.94,50.72-41.25,75.6-5.11,8.88-12.58,16.48-19.57,24.11-1.9,2.09-6,2.21-9,3.19-22.36,7.15-45.11,5.91-67.65,2-18.32-3.14-31.74-14.26-41.43-30.16-1.47-2.41-4.51-3.78-6.48-6-2.63-2.89-6.86-6-7-9.19-1.59-28.8-4.82-58,11.58-84.35,5.68-9.14,12.95-16.41,22.57-21.1,1.59-.78,3.82-.19,5.76-.22-.24,1.94,0,4.12-.8,5.8-6.63,14-13.75,27.72-20.08,41.83-2.51,5.59-3.5,11.9-4.94,17.94a5.56,5.56,0,0,0,.66,4.18c7.39,9.34,8.48,20.75,10,31.83,1.62,11.79,8.81,20.66,21,22.56,11,1.73,22.23,2.65,33.39,3.49,5.76.44,11.58-.2,17.38-.11S814.32,857.92,819.29,858.15Z"/><path class="cls-1" d="M317.94,647.44c7.16,1.4,15.59,3.61,24.16,4.58,16.79,1.92,30.79-5.88,44-14.81,9.21-6.22,17.69-13.51,26.58-20.39-3.32-2.85-6.53-5-8.93-7.79-3.68-4.35-2.42-9,2.7-11.32a9.63,9.63,0,0,1,5-1.13c12.58,2,24.67,5.55,33,15.93,2.56,3.17,3.59,8,4.12,12.24.25,2-1.83,5.63-3.69,6.37-2.19.87-5.57,0-7.94-1.19-3.43-1.68-6.75-6.34-9.51-5.9s-4.86,5.57-6.59,9c-9.18,18.09-24.85,28.19-43.28,33.39-20.24,5.71-40.56,3.23-60.13-4.43-2.47-1-4.64-2.68-7.44-4.34-1.26,2.24-2.3,4.73-3.94,6.72a5.51,5.51,0,0,1-4.25,1.77c-.84-.1-2.09-2.3-2.06-3.53a32.25,32.25,0,0,1,10.68-23.67c1.47-1.35,4.81-.65,7.29-.89C317.83,640.68,317.87,643.33,317.94,647.44Z"/></g></svg>