<svg xmlns="http://www.w3.org/2000/svg" viewBox="0 0 1000 1000"><defs><style>.cls-1{fill:#F2F2E2;}</style></defs><title>logo mr coffee v2</title><g id="Layer_2" data-name="Layer 2"><path class="cls-1" d="M484.92,533.28c42.51-44.07,98.78-77.39,138.14-5.57,16.94,37.6,68.51,71.34,111.56,61.7,19.28.17,56.34-20.55,70-5.48.73,30.35-77.37,53.57-104.46,50.51C643.51,631.51,611,570,569,537c-56.38-25.73-60.55,35.66-85.14,25.78-7.43-8.2-18.21-7.2-26.8-11.69-12.26-5.67-23-14.14-34.91-20.34C390.9,508.44,365.1,620.91,326,638c-82.93,65.45-161.72-9.17-111-19.48C303,657,323.76,573,359.89,511.37,396.59,456.21,456.11,494.17,484.92,533.28Z"/><path class="cls-1" d="M682.22,429.88c7.2,43.09,8.6,80.48,2.45,124.41a.94.94,0,0,1-1.54.58c-17.57-14.86-31.07-17.57-29.69-32.7,2.83-31.16-.2-59.62-6.05-90.45-1-5.17-2.81-7.74-8.58-8.87-117-25-237.92-14.93-352.76,16a1.33,1.33,0,0,0-.24.1c-27.44,15.47.76,120.16,5.46,151.41a.91.91,0,0,1-.7,1c-10,2.34-30.84,20.92-40,5.58a1.47,1.47,0,0,1-.1-.22c-15.42-49.33-13.27-93.18-6.37-144.09a.92.92,0,0,0-1.18-1c-20.4,6.1-60.36,19.31-42.61-17.56a.86.86,0,0,1,.21-.29c14.6-14.14,36.49-13,54.66-19.17C324.38,388,399,372.88,473.33,379.81h.13c70.83-4,145.13-5.56,213.26,16.73a.81.81,0,0,0,.41,0c15.38-2.35,24.73,10,36.92,15.34,6.75,2.93,9.26,11.05,6.64,16.27,0,.05-.05.09-.07.13-9.32,14.89-31.71.2-47.52.47A.93.93,0,0,0,682.22,429.88Z"/><path class="cls-1" d="M259.37,385.69c7.29-24.79,9.7-35.29,17.39-58.68,52.16-71,160-92.27,242.34-71.83,18.62.38,108.33,35.58,103,55.66-7.3,11.84-39.69,2.5-49.65-3.12C488.8,266.76,391.83,272.37,313,323c-8.92,13.93-15.34,25-18.3,41.42-3.23,17.92-14.46,16.47-34.44,22.16A.72.72,0,0,1,259.37,385.69Z"/><path class="cls-1" d="M637.94,636.28c-3.41-4.1-9.61-4.13-14.3-5a4.17,4.17,0,0,0-4.23,1.71c-20.81,30.61-35,64.62-68.06,83.7a1.53,1.53,0,0,1-.55.17c-77.52,5.67-165.85,12.77-220.45-53a1.26,1.26,0,0,0-1.68-.22c-13.47,9.49-23.32,14.7-30.37,17.53a1.26,1.26,0,0,0-.54,1.9c59.31,81.08,182.83,82.25,269.75,54.58,43.08-15.21,61.91-56.49,83.37-93a1.24,1.24,0,0,0-.75-1.84C645.42,641.61,640.7,639.6,637.94,636.28Z"/></g></svg>