<svg xmlns="http://www.w3.org/2000/svg" viewBox="0 0 1000 1000"><defs><style>.cls-1{fill:#f1f1f1;}</style></defs><title>Artboard 1 copy 4</title><g id="Layer_2" data-name="Layer 2"><path class="cls-1" d="M202.82,516.44c18.36-19,42.67-33.42,59.67-2.4,7.31,16.24,29.58,30.81,48.18,26.65,8.33.07,24.33-8.88,30.23-2.37.32,13.11-33.41,23.14-45.11,21.82-24.47-1.27-38.51-27.84-56.65-42.09-24.35-11.11-26.16,15.4-36.78,11.13-3.2-3.54-7.86-3.11-11.57-5-5.3-2.44-9.94-6.1-15.08-8.78-13.5-9.64-24.64,38.94-41.52,46.31-35.82,28.26-69.85-4-47.95-8.42,38,16.65,47-19.64,62.58-46.26C164.67,483.16,190.38,499.55,202.82,516.44Z"/><path class="cls-1" d="M288,471.79c3.11,18.6,3.71,34.75,1,53.73a.41.41,0,0,1-.66.25c-7.59-6.42-13.42-7.59-12.83-14.12,1.23-13.47-.08-25.76-2.61-39.07-.42-2.23-1.21-3.34-3.7-3.83-50.55-10.8-102.76-6.45-152.36,6.9l-.11,0c-11.85,6.68.33,51.9,2.36,65.39a.39.39,0,0,1-.3.45c-4.33,1-13.32,9-17.26,2.41a.3.3,0,0,1,0-.1c-6.66-21.3-5.73-40.24-2.75-62.23a.4.4,0,0,0-.51-.44c-8.81,2.63-26.07,8.34-18.41-7.59l.09-.12c6.31-6.11,15.77-5.6,23.61-8.28,29.87-11.48,62.09-18,94.21-15h.05c30.59-1.74,62.68-2.4,92.11,7.23a.55.55,0,0,0,.18,0c6.64-1,10.68,4.33,15.94,6.63a5.42,5.42,0,0,1,2.87,7l0,.05c-4,6.43-13.7.09-20.52.21A.39.39,0,0,0,288,471.79Z"/><path class="cls-1" d="M105.41,452.7c3.14-10.71,4.19-15.24,7.51-25.35,22.52-30.65,69.12-39.85,104.66-31,8,.17,46.79,15.37,44.51,24-3.16,5.12-17.14,1.08-21.45-1.35a113.5,113.5,0,0,0-112.07,6.6c-3.86,6-6.63,10.78-7.91,17.89-1.39,7.74-6.24,7.12-14.87,9.57A.3.3,0,0,1,105.41,452.7Z"/><path class="cls-1" d="M268.91,560.93c-1.47-1.77-4.15-1.78-6.18-2.15a1.8,1.8,0,0,0-1.82.74c-9,13.22-15.13,27.91-29.4,36.15a.62.62,0,0,1-.23.07c-33.49,2.45-71.64,5.51-95.22-22.87a.54.54,0,0,0-.73-.1,66.62,66.62,0,0,1-13.11,7.57.54.54,0,0,0-.23.82c25.61,35,79,35.53,116.5,23.58,18.61-6.57,26.74-24.4,36-40.19a.53.53,0,0,0-.32-.79A10.23,10.23,0,0,1,268.91,560.93Z"/><path class="cls-1" d="M771.68,551.25c2.2,6.59,10.74,11.57,17.57,11A121.66,121.66,0,0,0,837.59,548c1-.53.74-4.84.77-6.13.54-20.87,16.4-42.57,36.23-48.9,8.28-2.64,16.23-1.67,23.12,4.18,5.29,4.49,6.78,10.27,5.57,16.93-.13.72-.51,1.65-.21,2.13,2.42,3.87.72,7.06-1.9,9.67A64.49,64.49,0,0,1,890.44,535c-9.82,6.26-19.93,12-29.93,18-.53.32-1,.68-2.35,1.52a33.57,33.57,0,0,0,4.67,3.33c8.3,3.92,17.13,3.73,26,3.16,12.12-.79,23.17-5.27,34-10.18,3.9-1.76,7.2-4.81,10.88-7.1,2.45-1.52,5.14-2.12,7.23.56s.45,4.69-1.41,6.7c-20.81,22.43-46.52,30-76.24,24.85-8.32-1.43-15.43-5.43-20.11-13.32l-6.25,3c-13.67,6.65-27.88,11.57-43,13.69-18.82,2.64-37.88-10.42-40.12-28.1-1.41-11.08.61-21.56,7.5-30.91a90.75,90.75,0,0,1,27.8-24.95,39.83,39.83,0,0,1,8.42-3.66c7.24-2.18,14-1.27,19.53,4.3s6,12.6,4,19.68C815.54,535.61,794.06,551,771.68,551.25Zm-.59-12.46c9.31-1.4,16.3-5,22.84-9.54a32.29,32.29,0,0,0,12.78-17.19c.45-1.45.12-3.15.15-4.73-1.6,0-3.37-.37-4.76.17-11.07,4.33-20.61,10.75-26.83,21.18C773.57,531.53,772.68,534.87,771.09,538.79Zm85-4.52c.32.25-.17,4.64.15,4.89,1.22-.56,4.31-2.67,5.5-3.29,7.71-4,14.4-10.51,22.07-14.59a43.81,43.81,0,0,0,7.47-4.55c3.52-2.88,2.52-7.1-1.84-8.45-5.05-1.56-10.11-1.45-14.15,2.17a169.08,169.08,0,0,0-14.78,14.91C858.43,527.78,857.54,531.27,856.11,534.27Z"/><path class="cls-1" d="M544.25,504.05c-1.76.45-3.92.4-5.19,1.44-3.56,1.82-9.92,5.68-12.35,9.51a47.24,47.24,0,0,0-6.88,34.59,49.36,49.36,0,0,0,18.32,31c1.5,1.19,2.8,2.62,4.22,3.9,2.06,1.86,3.61,4.32,2.07,6.75-1.3,2.06-3.77,4.56-5.87,4.69-3.92.26-8.27-2.49-11.86-4.05-5.49-5.49-7.69-6.59-13.18-14.28-4.69-12.92-11.64-25.86-10-40a67.46,67.46,0,0,1,16.14-36.69c5.79-6.79,13.13-11,22.4-10.85,11.52.21,17.76,9.11,13.89,19.94-1.29,3.59-3.15,7-4.77,10.44-.84,1.81-1.74,3.6-2.8,5.78a18.31,18.31,0,0,0,2.56.45c16.5,0,26.44,16.28,18.87,31.1-1.44,2.83-3.63,5.26-5.22,8-.57,1-.86,3.22-.43,3.48,1.32.8,3.52,1.76,4.56,1.18,12.45-6.88,25.31-23.05,18.39-37.9-2.45-5.26-9.12-10.13-12.31-15-1.24-1.88-3.62-3.13-5.67-4.35-3.73-2.24-5.43-5.41-4.17-8.41,1.49-3.58,5.57-5.15,9.67-3.72a3.23,3.23,0,0,1,.72.26c14.08,9.19,27.73,21.25,27.19,41.46-.29,10.55-4.86,19.61-11.12,27.7-3.94,5.1-8.27,10.31-13.5,13.9C565.6,592.89,551.31,586.67,548,572c-1.35-5.95,1.33-10.64,4.85-15.14a20.42,20.42,0,0,0,3.73-6.9c.93-3.44-.68-5-4.22-5q-1,0-1.92.06c-14.36.91-20.05-13.86-14.65-23.63,2.1-3.8,4.51-7.44,6.7-11.19.94-1.61,1.7-3.33,2.54-5C544.77,504.85,544.51,504.45,544.25,504.05Z"/><path class="cls-1" d="M520.73,406.1c-1.11,1-2.27,1.91-3.33,2.93-8.75,8.45-17.44,17-26.23,25.34a41.58,41.58,0,0,1-5.79,4.42c-9.58,6.36-18.53,4.73-25.62-4.22-5-6.31-10.29-12.4-15.61-18.45a27.75,27.75,0,0,0-5.8-4.95c-4.87-3.14-8.29-1.93-10,3.52-4.68,14.62-1.61,28,6.65,40.52,2.52,3.83,5.58,7.38,7.57,11.46a9.7,9.7,0,0,1,0,7.48c-1.41,2.89-4.95,2.87-7.54,1.63-3.84-1.84-8.13-3.69-10.84-6.77-14.12-16.09-18.82-34.79-13.68-55.69,1.67-6.82,5.95-12.19,11.53-16.31,6.81-5,14.09-3.16,20.74.16a44.53,44.53,0,0,1,11.47,8.8c5.82,5.91,11.16,12.32,16.64,18.57,3.09,3.55,4.31,4,7.92.9,6.5-5.58,12.72-11.48,19-17.35,4-3.76,7.7-7.87,11.85-11.47a45.07,45.07,0,0,1,9.73-6.7c5.66-2.73,11.52-.91,14.5,4.63a29.24,29.24,0,0,1,3.42,11.2c1.19,15.05-.78,29.85-4.56,44.46a137.08,137.08,0,0,0-2.83,15.05c-.42,2.92-1.75,4.79-4.49,5.54a5.7,5.7,0,0,1-6.87-2.87c-2.74-4.63-3.17-9.72-2.34-14.88,1.2-7.57,2.95-15.06,3.91-22.65,1-7.92,1.38-15.93,2-23.89Z"/><path class="cls-1" d="M597,419.68c6.93,0,13.8-.33,20.62.1a70.38,70.38,0,0,1,15.83,2.61c7.25,2.22,12.28,7.22,12.72,15.18.65,12-1.63,23.45-8.47,33.61-1.53,2.26-3.46,5.69-6.52,3.88a13.66,13.66,0,0,1-5.94-7.63c-.8-3.24.34-7,1-10.52.89-4.65,2.3-9.19,3.18-13.84.94-5,.37-6-4.76-6.4-7.64-.54-15.34-.48-23-.45-3.83,0-7.65.63-11.49.8-3.52.15-6.66-.89-8.5-4.16-1.6-2.82-.94-5.47.55-8.33,3.62-6.91,7-14,10.26-21,2-4.38,1.89-9.91-.46-11.14-4-2.1-7.17.61-10,2.8-10.78,8.29-16.58,19.2-16.82,33-.14,8.45-.53,16.9-1,25.34a21.92,21.92,0,0,1-1.47,6.69c-.47,1.2-2,2.78-3,2.76s-2.75-1.58-3-2.73c-1.8-8.09-4.24-16.2-4.67-24.4-.48-9.24-.52-19,1.83-27.8,4.37-16.36,17-25.31,32.92-28.85,13.23-2.93,22.46,9.75,17.74,23.7-1.47,4.34-3.71,8.41-5.6,12.6C598.26,417,597.51,418.61,597,419.68Z"/><path class="cls-1" d="M418.17,556.48A65.91,65.91,0,0,1,442.08,508c7.91-6.67,16.81-9,26.81-5.36,3,1.09,5.09,3.16,4.9,6.59s-2.66,5.2-5.77,5.77c-21.53,3.92-31.28,26.79-31.44,43-.13,13,8.44,19.92,21.38,17.49,9.34-1.75,17.27-6.21,24.83-11.61,1.14-.82,2.26-2,3.54-2.24,2-.42,4.76-1,5.9,0s1.75,4.27,1,5.79a55,55,0,0,1-7.2,11.22C474.71,592.17,453.76,598,438.7,592,426.21,587.09,418.17,574.26,418.17,556.48Z"/><path class="cls-1" d="M701.84,525.24c7.76.57,15.23,1,22.66,1.76a11.21,11.21,0,0,1,5.79,2.76,6.52,6.52,0,0,1,2.12,4.82c-.15,1.32-2,3.08-3.42,3.48a63.41,63.41,0,0,1-10.57,1.78c-5.34.58-10.7,1-16.06,1.34-2.57.14-3.43,1.1-3.58,3.72-.55,10-1.34,19.92-2.17,29.86-.17,2-.38,4.34-1.48,5.87s-3.46,3.6-5.2,3.55-3.82-2.12-5-3.81a10.93,10.93,0,0,1-1.5-5.49c-.59-10.73-1.78-21.51-1.28-32.2s2.36-21.34,4.37-31.87c1.58-8.26,7.23-13.65,15.08-16.57,9-3.34,18.2-5.59,27.8-4.65A145.1,145.1,0,0,1,747.79,493c2.67.61,4.22,2.82,4.07,5.79a5.41,5.41,0,0,1-4.56,5.44c-6,1.15-12,2.08-18.09,3-4.42.68-9,.85-13.28,1.9C705.24,511.71,702.89,513.84,701.84,525.24Z"/><path class="cls-1" d="M637.34,532.09c5.91-1.17,11.23-2.54,16.64-3.15a18.5,18.5,0,0,1,8.58,1.34c1.7.68,3.7,2.84,3.87,4.51a7.72,7.72,0,0,1-2.59,5.72c-4.8,4-10.93,3.88-16.76,4.51-1.23.13-2.46.13-4.35.23,2.94,6.17,5.93,11.79,8.33,17.66,2.2,5.38,4.42,10.9,5.41,16.57s-4.4,9.19-9.52,6.64c-2.82-1.41-5.94-3.69-7.26-6.39-7-14.32-13.65-28.85-20.16-43.41a76.83,76.83,0,0,1-4.27-13.1c-3.5-14.26,3-24.44,17.58-26.57,11.42-1.67,23-1.71,34.34,1a6,6,0,0,1,3.76,3.94c.21,1.19-1.68,3.65-3.07,4-6.62,1.89-13.4,3.22-20.1,4.82-4.47,1.07-8.92,2.25-13.37,3.4-2.36.61-3,2.19-2.25,4.37C633.89,523,635.71,527.74,637.34,532.09Z"/><path class="cls-1" d="M665.85,450.34c5.37-.06,10.35,5.81,10.33,12.18a10.32,10.32,0,0,1-10.13,10c-5.52.13-9.54-4.32-9.61-10.64C656.38,455.76,660.75,450.4,665.85,450.34Z"/></g></svg>